# xmcd
#
# Track frame offsets:
#	150
#	21773
#	42207
#	63777
#	101996
#	129294
#	144280
#	159130
#	170292
#	207942
#	221883
#	241282
#	262445
#	274247
#	285729
#	299745
#	323771
#
# Disc length: 4587 seconds
#
# Revision: 0
# Processed by: cddbd v1.5.2PL0 Copyright (c) Steve Scherf et al.
# Submitted via: EasyCDDAExtractor 15.3.0.1
#
DISCID=0811e911
DTITLE=Colin Dewar and his Band - A' the Best Fae Banffshire
DYEAR=2006
DGENRE=Country
TTITLE0=Findlater Castle - 8 x 32 Reel
TTITLE1=Compliments to Mrs.Jessie Bain - 4 x 32 Strathspey
TTITLE2=The Birlin Birkie - 8 x 32 Jig
TTITLE3=The Braes of Strathlene - 8 x 32 Strathspey
TTITLE4=Travelling to America - 8 x 40 Reel
TTITLE5=Gourdieburn - 3 x 32 Strathspey
TTITLE6=Gourdieburn - 3 x 32 Strathspey Encore
TTITLE7=The Glenrothes - 4 x 32 Jig
TTITLE8=Moranbank - 8 x 32 Strathspey
TTITLE9=We've Nae Electric - 5 x 32 Reel
TTITLE10=A Glint of Gold - 4 x 32 Strathspey
TTITLE11=The Tripitup Troupe - 8 x 32 Jig
TTITLE12=The Hills of Alba - 4 x 32 Reel
TTITLE13=The Hills of Alba - 4 x 32 Reel Encore
TTITLE14=Dance Set 1 - 4 x 40 Reel
TTITLE15=Dance Set 2 - 4 x 40 Strathspey
TTITLE16=Dance Set 3 - 5 x 48 Reel
EXTD=
EXTT0=
EXTT1=
EXTT2=
EXTT3=
EXTT4=
EXTT5=
EXTT6=
EXTT7=
EXTT8=
EXTT9=
EXTT10=
EXTT11=
EXTT12=
EXTT13=
EXTT14=
EXTT15=
EXTT16=
PLAYORDER=
